<?xml version="1.0" encoding="utf-8"?>
<!-- Generator: Adobe Illustrator 18.1.1, SVG Export Plug-In . SVG Version: 6.00 Build 0)  -->
<svg version="1.1" id="Layer_1" xmlns="http://www.w3.org/2000/svg" xmlns:xlink="http://www.w3.org/1999/xlink" x="0px" y="0px"
	 viewBox="-72 225.7 371 111" enable-background="new -72 225.7 371 111" xml:space="preserve">
<g>
	<g>
		<path fill="#002F87" d="M47.5,287.7l0,6.5c-3.3,1.2-6.5,1.8-9.6,1.8c-5.2,0-9.3-1.5-12.4-4.6c-3.1-3.1-4.6-7.2-4.6-12.3
			c0-5.2,1.5-9.4,4.5-12.6c3-3.2,6.9-4.8,11.8-4.8c1.7,0,3.2,0.2,4.6,0.5c1.3,0.3,3,0.9,5,1.8l0,7c-3.3-2.1-6.4-3.2-9.2-3.2
			c-2.9,0-5.4,1-7.2,3.1c-1.9,2.1-2.9,4.7-2.9,7.9c0,3.4,1,6.1,3.1,8c2.1,2,4.8,3,8.3,3C41.3,289.8,44.2,289.1,47.5,287.7"/>
		<path fill="#002F87" d="M69.3,262.3c5,0,9.2,1.6,12.5,4.9c3.3,3.2,5,7.3,5,12.2c0,4.8-1.7,8.7-5.1,11.9c-3.4,3.1-7.7,4.7-12.8,4.7
			c-4.9,0-9.1-1.6-12.4-4.8c-3.3-3.2-5-7.2-5-12c0-4.8,1.7-8.9,5.1-12.1C60,263.9,64.2,262.3,69.3,262.3 M68.9,268.2
			c-3.1,0-5.7,1-7.7,3.1c-2,2-3,4.7-3,7.9c0,3.2,1,5.7,3.1,7.7c2.1,2,4.7,3,7.9,3c3.2,0,5.8-1,7.9-3c2-2,3.1-4.6,3.1-7.8
			c0-3.1-1.1-5.7-3.2-7.8C74.8,269.2,72.1,268.2,68.9,268.2"/>
		<polygon fill="#002F87" points="91.3,245.2 97.8,245.2 97.8,295.4 91.2,295.4 		"/>
		<rect x="105.8" y="245.2" fill="#002F87" width="6.5" height="50.2"/>
		<path fill="#002F87" d="M147.2,279.5l-23.2,0c0.2,3.2,1.3,5.7,3.2,7.5c2,1.9,4.5,2.8,7.6,2.8c4.3,0,8.3-1.3,11.9-4l0,6.4
			c-2,1.4-4,2.3-6,2.9c-2,0.6-4.3,0.8-6.9,0.9c-3.6,0-6.6-0.7-8.8-2.3c-2.2-1.5-4.1-3.5-5.4-6.1c-1.3-2.6-2-5.5-2-8.9
			c0-5,1.4-9.1,4.3-12.3c2.9-3.2,6.6-4.7,11.1-4.7c4.4,0,7.9,1.6,10.5,4.6c2.6,3.1,3.9,7.2,3.9,12.3L147.2,279.5z M124.2,275.5h16.6
			c-0.2-2.6-0.9-4.6-2.3-6c-1.4-1.4-3.3-2.1-5.6-2.1c-2.3,0-4.2,0.7-5.7,2.1C125.6,270.9,124.6,272.9,124.2,275.5"/>
		<path fill="#002F87" d="M178.7,287.7v6.5c-3.3,1.2-6.5,1.8-9.6,1.8c-5.2,0-9.3-1.5-12.4-4.6c-3.1-3.1-4.6-7.2-4.6-12.3
			c0-5.2,1.5-9.4,4.5-12.6c3-3.2,6.9-4.8,11.8-4.8c1.7,0,3.2,0.2,4.6,0.5c1.3,0.3,3,0.9,5,1.8v7c-3.3-2.1-6.4-3.2-9.2-3.2
			c-2.9,0-5.3,1.1-7.3,3.1c-1.9,2.1-2.8,4.7-2.8,7.9c0,3.4,1,6,3.1,8c2,2,4.8,3,8.3,3C172.6,289.9,175.5,289.2,178.7,287.7"/>
		<path fill="#002F87" d="M181.9,267.6l12.3-12.1l0,6.8l10.5,0l0,5.9l-10.5,0l0,16.2c0,3.8,1.6,5.7,4.7,5.7c2.3,0,4.8-0.8,7.4-2.3
			l0,6.1c-2.5,1.4-5.2,2.1-8.2,2.1c-3,0-5.5-0.9-7.5-2.6c-0.6-0.5-1.1-1.1-1.5-1.8c-0.4-0.7-0.7-1.5-1-2.6c-0.3-1.1-0.4-3.1-0.4-6.1
			v-14.7l-5.7,0L181.9,267.6L181.9,267.6z"/>
		<path fill="#002F87" d="M215.1,248.5c1.1,0,2,0.4,2.8,1.1c0.8,0.7,1.1,1.7,1.1,2.7c0,1.1-0.4,2-1.2,2.7c-0.7,0.8-1.7,1.1-2.8,1.2
			c-1,0-1.9-0.4-2.7-1.2c-0.7-0.8-1.1-1.7-1.1-2.7c0-1,0.4-1.9,1.1-2.7C213.2,248.9,214.1,248.5,215.1,248.5 M211.9,262.4l6.5,0
			l0,33h-6.5L211.9,262.4z"/>
		<polygon fill="#002F87" points="248.1,262.4 255.2,262.4 240.6,296 238.4,296 223.5,262.4 230.6,262.4 239.5,282.7 		"/>
		<path fill="#002F87" d="M285.6,279.5h-23.2c0.2,3.1,1.2,5.7,3.2,7.5c1.9,1.9,4.5,2.8,7.5,2.8c4.3,0,8.3-1.3,11.9-4l0,6.4
			c-2,1.3-4,2.3-6,2.9c-2,0.6-4.3,0.8-7,0.8c-3.6,0-6.6-0.7-8.8-2.3c-2.3-1.5-4.1-3.5-5.4-6.1c-1.3-2.6-2-5.5-2-8.9
			c0-5,1.4-9.1,4.3-12.3c2.9-3.2,6.6-4.7,11.1-4.7c4.4,0,7.9,1.5,10.5,4.6c2.6,3.1,3.9,7.2,3.9,12.3L285.6,279.5L285.6,279.5z
			 M262.6,275.6l16.6,0c-0.2-2.6-0.9-4.6-2.3-6c-1.4-1.4-3.3-2.1-5.6-2.1c-2.3,0-4.3,0.7-5.8,2.1C264,271,263,273,262.6,275.6"/>
	</g>
	<g>
		<g>
			<polygon fill="#002F87" points="1,298.5 -6.8,290.3 2.6,296.6 			"/>
			<polygon fill="#002F87" points="-20.7,307.4 -19.5,296.2 -18.2,307.4 			"/>
			<polygon fill="#002F87" points="-18.2,252 -19.4,263.2 -20.7,252 			"/>
			<polygon fill="#002F87" points="-15.9,307.3 -16.6,296 -13.4,306.8 			"/>
			<polygon fill="#002F87" points="-23.1,252 -22.4,263.3 -25.6,252.5 			"/>
			<polygon fill="#002F87" points="-27.8,253.3 -25.1,264.2 -30.2,254.1 			"/>
			<polygon fill="#002F87" points="-11.1,306.1 -13.7,295.2 -8.7,305.3 			"/>
			<polygon fill="#002F87" points="-32.1,255.1 -27.5,265.4 -34.2,256.4 			"/>
			<polygon fill="#002F87" points="-6.8,304.2 -11.3,293.9 -4.6,302.9 			"/>
			<polygon fill="#002F87" points="-36.3,257.6 -30,267 -38.2,259.2 			"/>
			<polygon fill="#002F87" points="-2.6,301.8 -8.8,292.4 -0.6,300.2 			"/>
			<polygon fill="#002F87" points="-39.9,260.9 -32.1,269 -41.5,262.8 			"/>
			<polygon fill="#002F87" points="-42.9,264.6 -33.8,271.3 -44.1,266.8 			"/>
			<polygon fill="#002F87" points="-45.1,269.1 -35,274.1 -45.9,271.5 			"/>
			<polygon fill="#002F87" points="-46.5,273.6 -35.7,276.8 -46.9,276.1 			"/>
			<polygon fill="#002F87" points="-47.1,278.4 -35.9,279.6 -47.1,280.9 			"/>
			<polygon fill="#002F87" points="-46.9,283.4 -35.7,282.7 -46.5,285.9 			"/>
			<polygon fill="#002F87" points="-45.8,288 -34.9,285.3 -45,290.4 			"/>
			<polygon fill="#002F87" points="-44.2,292.4 -33.9,287.9 -42.9,294.6 			"/>
			<polygon fill="#002F87" points="-41.4,296.4 -32,290.2 -39.8,298.4 			"/>
			<polygon fill="#002F87" points="-38.2,300 -30,292.3 -36.2,301.7 			"/>
			<polygon fill="#002F87" points="-0.6,259.3 -8.8,267 -2.6,257.7 			"/>
			<polygon fill="#002F87" points="2.7,262.8 -6.7,269 1.1,260.8 			"/>
			<polygon fill="#002F87" points="-34.4,303 -27.8,294 -32.2,304.3 			"/>
			<polygon fill="#002F87" points="-4.6,256.4 -11.3,265.5 -6.8,255.2 			"/>
			<polygon fill="#002F87" points="-30.2,305.3 -25.2,295.2 -27.8,306.2 			"/>
			<polygon fill="#002F87" points="-8.8,254.1 -13.8,264.2 -11.2,253.2 			"/>
			<polygon fill="#002F87" points="-25.5,306.7 -22.3,295.9 -23,307.1 			"/>
			<polygon fill="#002F87" points="-13.5,252.5 -16.6,263.3 -16,252.1 			"/>
		</g>
		<g>
			<polygon fill="#0075C9" points="-20.7,326 -19.5,307.4 -18.2,326 			"/>
			<polygon fill="#0075C9" points="-18.1,233.4 -19.4,252 -20.7,233.4 			"/>
			<polygon fill="#0075C9" points="-12.7,325.5 -14.6,306.9 -10.1,325 			"/>
			<polygon fill="#0075C9" points="-26.3,233.7 -24.3,252.2 -28.8,234.2 			"/>
			<polygon fill="#0075C9" points="-34.2,235.8 -29,253.7 -36.5,236.6 			"/>
			<polygon fill="#0075C9" points="-4.7,323.7 -9.9,305.8 -2.3,322.8 			"/>
			<polygon fill="#0075C9" points="-41.6,239 -33.4,255.8 -43.8,240.3 			"/>
			<polygon fill="#0075C9" points="2.6,320.4 -5.6,303.6 4.8,319.1 			"/>
			<polygon fill="#0075C9" points="-48.2,243.3 -37.2,258.3 -50.2,244.9 			"/>
			<polygon fill="#0075C9" points="9.4,316.1 -1.6,301 11.3,314.5 			"/>
			<polygon fill="#0075C9" points="-54.1,248.9 -40.6,261.9 -55.7,250.9 			"/>
			<polygon fill="#0075C9" points="15.2,310.5 1.8,297.6 16.9,308.6 			"/>
			<polygon fill="#0075C9" points="-59,255.3 -43.5,265.7 -60.3,257.5 			"/>
			<polygon fill="#0075C9" points="-62.6,262.7 -45.5,270.3 -63.4,265.1 			"/>
			<polygon fill="#0075C9" points="-64.8,270.4 -46.6,274.8 -65.2,272.9 			"/>
			<polygon fill="#0075C9" points="-65.8,278.4 -47.2,279.6 -65.8,280.9 			"/>
			<polygon fill="#0075C9" points="-65.2,286.6 -46.7,284.6 -64.8,289.1 			"/>
			<polygon fill="#0075C9" points="-63.4,294.4 -45.4,289.2 -62.5,296.8 			"/>
			<polygon fill="#0075C9" points="-60.2,301.8 -43.4,293.6 -58.9,304 			"/>
			<polygon fill="#0075C9" points="-55.7,308.4 -40.7,297.4 -54.1,310.3 			"/>
			<polygon fill="#0075C9" points="-50.4,314.4 -37.4,300.9 -48.4,316 			"/>
			<polygon fill="#0075C9" points="11.4,245 -1.5,258.4 9.5,243.4 			"/>
			<polygon fill="#0075C9" points="16.9,250.9 1.8,261.8 15.3,248.9 			"/>
			<polygon fill="#0075C9" points="-43.8,319.2 -33.4,303.7 -41.6,320.5 			"/>
			<polygon fill="#0075C9" points="5,240.2 -5.4,255.7 2.8,239 			"/>
			<polygon fill="#0075C9" points="-36.4,322.8 -28.8,305.7 -34,323.7 			"/>
			<polygon fill="#0075C9" points="-2.4,236.5 -10,253.6 -4.8,235.7 			"/>
			<polygon fill="#0075C9" points="-28.8,325.1 -24.3,307 -26.3,325.5 			"/>
			<polygon fill="#0075C9" points="-10.2,234.1 -14.7,252.2 -12.7,233.7 			"/>
		</g>
	</g>
	<text transform="matrix(1 0 0 1 88.5107 319.9934)" fill="#DEA427" font-family="'SohoGothicStd'" font-size="23.0856">marketing services</text>
</g>
</svg>
