<?xml version="1.0" encoding="utf-8"?>
<!-- Generator: Adobe Illustrator 16.0.4, SVG Export Plug-In . SVG Version: 6.00 Build 0)  -->
<!DOCTYPE svg PUBLIC "-//W3C//DTD SVG 1.1//EN" "http://www.w3.org/Graphics/SVG/1.1/DTD/svg11.dtd">
<svg version="1.1" id="Layer_1" xmlns="http://www.w3.org/2000/svg" xmlns:xlink="http://www.w3.org/1999/xlink" x="0px" y="0px"
	 width="595.28px" height="595.28px" viewBox="0 0 595.28 595.28" enable-background="new 0 0 595.28 595.28" xml:space="preserve">
<g>
	<g>
		<path fill="#002F87" d="M228.49,304.936l0.01,6.474c-3.278,1.218-6.503,1.817-9.641,1.817c-5.168,0.011-9.283-1.524-12.364-4.594
			c-3.084-3.064-4.598-7.156-4.592-12.311c-0.021-5.193,1.476-9.397,4.489-12.579c2.979-3.19,6.927-4.777,11.799-4.779
			c1.699,0.001,3.223,0.183,4.605,0.501c1.331,0.314,2.988,0.93,4.998,1.82l-0.009,6.962c-3.319-2.125-6.372-3.174-9.209-3.165
			c-2.923-0.01-5.354,1.038-7.24,3.108c-1.885,2.053-2.86,4.698-2.852,7.91c0.011,3.369,1.02,6.056,3.073,8.044
			c2.051,1.987,4.822,2.971,8.275,2.971C222.349,307.125,225.233,306.41,228.49,304.936"/>
		<path fill="#002F87" d="M250.271,279.556c5.027,0.011,9.189,1.634,12.522,4.88c3.334,3.235,4.997,7.317,4.997,12.234
			c-0.006,4.755-1.695,8.718-5.058,11.86c-3.407,3.14-7.658,4.722-12.764,4.722c-4.946-0.015-9.091-1.615-12.425-4.811
			c-3.34-3.198-4.985-7.184-4.994-11.973c-0.007-4.844,1.704-8.871,5.05-12.077C240.982,281.171,245.188,279.556,250.271,279.556
			 M249.895,285.448c-3.123,0-5.694,1.038-7.712,3.084c-2.014,2.05-3.001,4.698-3.017,7.876c0.006,3.153,1.021,5.737,3.075,7.731
			c2.07,1.994,4.716,2.985,7.938,2.985c3.219,0,5.822-1.007,7.89-3.013c2.045-2.027,3.063-4.607,3.073-7.782
			c-0.01-3.135-1.065-5.728-3.201-7.791C255.812,286.486,253.134,285.448,249.895,285.448"/>
		<polygon fill="#002F87" points="272.254,262.521 278.792,262.521 278.777,312.674 272.238,312.691 		"/>
		<rect x="286.771" y="262.521" fill="#002F87" width="6.536" height="50.17"/>
		<path fill="#002F87" d="M328.246,296.761l-23.237-0.01c0.169,3.157,1.252,5.659,3.185,7.55c1.961,1.858,4.463,2.791,7.554,2.791
			c4.299,0.01,8.28-1.329,11.927-4.025l-0.01,6.389c-2.011,1.371-4.003,2.306-5.993,2.889c-1.957,0.551-4.265,0.844-6.924,0.852
			c-3.637,0-6.571-0.744-8.842-2.271c-2.241-1.51-4.056-3.544-5.419-6.073c-1.319-2.572-2.009-5.518-2.009-8.862
			c0-5.032,1.426-9.121,4.261-12.262c2.883-3.162,6.574-4.732,11.099-4.728c4.412,0,7.89,1.552,10.504,4.619
			c2.595,3.059,3.905,7.162,3.896,12.291L328.246,296.761z M305.173,292.826h16.613c-0.172-2.599-0.944-4.61-2.33-6.023
			c-1.421-1.416-3.253-2.132-5.633-2.132c-2.305-0.003-4.241,0.713-5.739,2.114C306.607,288.207,305.611,290.227,305.173,292.826"/>
		<path fill="#002F87" d="M359.725,304.984v6.457c-3.282,1.232-6.5,1.838-9.618,1.838c-5.174-0.012-9.317-1.527-12.369-4.596
			c-3.082-3.064-4.623-7.176-4.623-12.305c0.006-5.208,1.507-9.417,4.514-12.6c2.986-3.169,6.938-4.762,11.793-4.764
			c1.699,0,3.244,0.172,4.593,0.481c1.338,0.333,3.027,0.94,5.003,1.824v6.959c-3.315-2.111-6.368-3.155-9.205-3.166
			c-2.942,0.01-5.349,1.052-7.261,3.117c-1.862,2.06-2.824,4.708-2.827,7.915c0,3.366,1.012,6.042,3.075,8.04
			c2.042,1.992,4.804,2.99,8.277,2.99C353.588,307.164,356.455,306.441,359.725,304.984"/>
		<path fill="#002F87" d="M362.893,284.904l12.27-12.052l0.01,6.827l10.468-0.008l-0.015,5.896l-10.463-0.011l-0.007,16.179
			c0,3.772,1.576,5.66,4.714,5.66c2.348,0.005,4.83-0.771,7.435-2.329l-0.01,6.104c-2.498,1.411-5.248,2.122-8.211,2.122
			c-3.003,0-5.475-0.872-7.476-2.626c-0.614-0.538-1.135-1.121-1.542-1.779c-0.404-0.66-0.745-1.52-1.019-2.582
			c-0.27-1.078-0.418-3.092-0.418-6.078v-14.673l-5.736,0.003V284.904z"/>
		<path fill="#002F87" d="M396.129,265.782c1.086,0,2.004,0.377,2.773,1.112c0.766,0.744,1.146,1.652,1.146,2.731
			c0.008,1.064-0.38,1.957-1.158,2.722c-0.748,0.785-1.679,1.148-2.769,1.154c-0.993,0.01-1.885-0.391-2.655-1.166
			c-0.739-0.778-1.134-1.681-1.146-2.719c-0.007-0.99,0.398-1.878,1.146-2.664C394.22,266.175,395.135,265.794,396.129,265.782
			 M392.89,279.679l6.54,0.002l-0.012,33.028h-6.521L392.89,279.679z"/>
		<polygon fill="#002F87" points="429.104,279.684 436.189,279.684 421.589,313.292 419.379,313.301 404.464,279.681 
			411.603,279.681 420.488,300.014 		"/>
		<path fill="#002F87" d="M466.636,296.803h-23.243c0.175,3.147,1.242,5.664,3.19,7.545c1.938,1.854,4.469,2.795,7.55,2.795
			c4.332,0,8.282-1.347,11.937-4.025l0.011,6.396c-2.043,1.346-4.01,2.285-6.002,2.869c-1.972,0.56-4.29,0.844-6.956,0.844
			c-3.627,0.011-6.552-0.748-8.81-2.254c-2.262-1.51-4.066-3.539-5.419-6.072c-1.341-2.563-2.005-5.519-2.005-8.862
			c0-5.03,1.409-9.123,4.259-12.265c2.862-3.16,6.558-4.733,11.103-4.73c4.365-0.003,7.861,1.543,10.465,4.607
			c2.634,3.071,3.921,7.159,3.921,12.304V296.803z M443.551,292.856l16.619,0.016c-0.17-2.597-0.924-4.61-2.32-6.029
			c-1.396-1.407-3.264-2.121-5.61-2.121c-2.346-0.004-4.271,0.712-5.753,2.129C444.993,288.263,443.999,290.27,443.551,292.856"/>
	</g>
	<g>
		<g>
			<polygon fill-rule="evenodd" clip-rule="evenodd" fill="#002F87" points="181.967,315.813 174.191,307.623 183.596,313.861 			
				"/>
			<polygon fill-rule="evenodd" clip-rule="evenodd" fill="#002F87" points="160.275,324.668 161.524,313.469 162.814,324.668 			
				"/>
			<polygon fill-rule="evenodd" clip-rule="evenodd" fill="#002F87" points="162.849,269.279 161.58,280.488 160.297,269.271 			"/>
			<polygon fill-rule="evenodd" clip-rule="evenodd" fill="#002F87" points="165.08,324.539 164.383,313.291 167.587,324.105 			"/>
			<polygon fill-rule="evenodd" clip-rule="evenodd" fill="#002F87" points="157.928,269.328 158.645,280.572 155.439,269.765 			
				"/>
			<polygon fill-rule="evenodd" clip-rule="evenodd" fill="#002F87" points="153.225,270.549 155.869,281.499 150.823,271.423 			
				"/>
			<polygon fill-rule="evenodd" clip-rule="evenodd" fill="#002F87" points="169.941,323.411 167.291,312.461 172.339,322.553 			
				"/>
			<polygon fill-rule="evenodd" clip-rule="evenodd" fill="#002F87" points="148.943,272.371 153.47,282.693 146.758,273.652 			"/>
			<polygon fill-rule="evenodd" clip-rule="evenodd" fill="#002F87" points="174.24,321.479 169.734,311.156 176.434,320.203 			"/>
			<polygon fill-rule="evenodd" clip-rule="evenodd" fill="#002F87" points="144.723,274.867 150.961,284.241 142.783,276.501 			
				"/>
			<polygon fill-rule="evenodd" clip-rule="evenodd" fill="#002F87" points="178.434,319.117 172.205,309.711 180.38,317.463 			"/>
			<polygon fill-rule="evenodd" clip-rule="evenodd" fill="#002F87" points="141.139,278.132 148.91,286.295 139.502,280.082 			"/>
			<polygon fill-rule="evenodd" clip-rule="evenodd" fill="#002F87" points="138.141,281.858 147.202,288.54 136.863,284.061 			"/>
			<polygon fill-rule="evenodd" clip-rule="evenodd" fill="#002F87" points="135.937,286.41 146.023,291.42 135.057,288.798 			"/>
			<polygon fill-rule="evenodd" clip-rule="evenodd" fill="#002F87" points="134.498,290.878 145.316,294.07 134.07,293.38 			"/>
			<polygon fill-rule="evenodd" clip-rule="evenodd" fill="#002F87" points="133.861,295.684 145.066,296.928 133.865,298.22 			"/>
			<polygon fill-rule="evenodd" clip-rule="evenodd" fill="#002F87" points="134.098,300.642 145.347,299.938 134.531,303.154 			
				"/>
			<polygon fill-rule="evenodd" clip-rule="evenodd" fill="#002F87" points="135.152,305.248 146.099,302.611 136.02,307.641 			"/>
			<polygon fill-rule="evenodd" clip-rule="evenodd" fill="#002F87" points="136.796,309.707 147.127,305.195 138.078,311.893 			
				"/>
			<polygon fill-rule="evenodd" clip-rule="evenodd" fill="#002F87" points="139.629,313.693 149,307.457 141.249,315.639 			"/>
			<polygon fill-rule="evenodd" clip-rule="evenodd" fill="#002F87" points="142.838,317.311 151.004,309.545 144.791,318.939 			
				"/>
			<polygon fill-rule="evenodd" clip-rule="evenodd" fill="#002F87" points="180.398,276.56 172.238,284.328 178.441,274.935 			"/>
			<polygon fill-rule="evenodd" clip-rule="evenodd" fill="#002F87" points="183.699,280.077 174.314,286.307 182.065,278.127 			
				"/>
			<polygon fill-rule="evenodd" clip-rule="evenodd" fill="#002F87" points="146.562,320.312 153.24,311.246 148.757,321.586 			"/>
			<polygon fill-rule="evenodd" clip-rule="evenodd" fill="#002F87" points="176.417,273.704 169.734,282.783 174.227,272.448 			
				"/>
			<polygon fill-rule="evenodd" clip-rule="evenodd" fill="#002F87" points="150.789,322.581 155.792,312.484 153.182,323.438 			
				"/>
			<polygon fill-rule="evenodd" clip-rule="evenodd" fill="#002F87" points="172.178,271.386 167.166,281.472 169.783,270.495 			
				"/>
			<polygon fill-rule="evenodd" clip-rule="evenodd" fill="#002F87" points="155.484,323.949 158.673,313.143 158.009,324.391 			
				"/>
			<polygon fill-rule="evenodd" clip-rule="evenodd" fill="#002F87" points="167.528,269.79 164.356,280.604 165.02,269.356 			"/>
		</g>
		<g>
			<polygon fill-rule="evenodd" clip-rule="evenodd" fill="#0075C9" points="160.271,343.295 161.537,324.676 162.822,343.295 			
				"/>
			<polygon fill-rule="evenodd" clip-rule="evenodd" fill="#0075C9" points="162.857,250.665 161.6,269.264 160.297,250.657 			"/>
			<polygon fill-rule="evenodd" clip-rule="evenodd" fill="#0075C9" points="168.345,342.758 166.358,324.23 170.854,342.316 			"/>
			<polygon fill-rule="evenodd" clip-rule="evenodd" fill="#0075C9" points="154.714,251 156.699,269.529 152.191,251.433 			"/>
			<polygon fill-rule="evenodd" clip-rule="evenodd" fill="#0075C9" points="146.844,253.054 152.039,270.959 144.466,253.923 			
				"/>
			<polygon fill-rule="evenodd" clip-rule="evenodd" fill="#0075C9" points="176.301,340.947 171.117,323.051 178.682,340.1 			"/>
			<polygon fill-rule="evenodd" clip-rule="evenodd" fill="#0075C9" points="139.396,256.297 147.6,273.039 137.192,257.564 			"/>
			<polygon fill-rule="evenodd" clip-rule="evenodd" fill="#0075C9" points="183.568,337.672 175.366,320.927 185.771,336.396 			
				"/>
			<polygon fill-rule="evenodd" clip-rule="evenodd" fill="#0075C9" points="132.783,260.548 143.777,275.618 130.816,262.188 			
				"/>
			<polygon fill-rule="evenodd" clip-rule="evenodd" fill="#0075C9" points="190.404,333.375 179.4,318.311 192.346,331.738 			"/>
			<polygon fill-rule="evenodd" clip-rule="evenodd" fill="#0075C9" points="126.908,266.218 140.354,279.134 125.277,268.161 			
				"/>
			<polygon fill-rule="evenodd" clip-rule="evenodd" fill="#0075C9" points="196.231,327.828 182.791,314.914 197.875,325.885 			
				"/>
			<polygon fill-rule="evenodd" clip-rule="evenodd" fill="#0075C9" points="122.007,272.545 137.503,282.936 120.738,274.748 			
				"/>
			<polygon fill-rule="evenodd" clip-rule="evenodd" fill="#0075C9" points="118.43,280.026 135.474,287.563 117.559,282.412 			"/>
			<polygon fill-rule="evenodd" clip-rule="evenodd" fill="#0075C9" points="116.248,287.671 134.367,292.13 115.81,290.168 			"/>
			<polygon fill-rule="evenodd" clip-rule="evenodd" fill="#0075C9" points="115.248,295.676 133.848,296.924 115.24,298.213 			"/>
			<polygon fill-rule="evenodd" clip-rule="evenodd" fill="#0075C9" points="115.751,303.858 134.296,301.879 116.196,306.364 			
				"/>
			<polygon fill-rule="evenodd" clip-rule="evenodd" fill="#0075C9" points="117.631,311.65 135.562,306.475 118.508,314.042 			"/>
			<polygon fill-rule="evenodd" clip-rule="evenodd" fill="#0075C9" points="120.847,319.096 137.58,310.886 122.1,321.305 			"/>
			<polygon fill-rule="evenodd" clip-rule="evenodd" fill="#0075C9" points="125.252,325.669 140.318,314.674 126.882,327.604 			
				"/>
			<polygon fill-rule="evenodd" clip-rule="evenodd" fill="#0075C9" points="130.627,331.641 143.553,318.217 132.574,333.293 			
				"/>
			<polygon fill-rule="evenodd" clip-rule="evenodd" fill="#0075C9" points="192.43,262.272 179.494,275.71 190.479,260.635 			"/>
			<polygon fill-rule="evenodd" clip-rule="evenodd" fill="#0075C9" points="197.903,268.142 182.843,279.13 196.283,266.188 			"/>
			<polygon fill-rule="evenodd" clip-rule="evenodd" fill="#0075C9" points="137.174,336.502 147.564,321.02 139.379,337.777 			"/>
			<polygon fill-rule="evenodd" clip-rule="evenodd" fill="#0075C9" points="185.973,257.501 175.564,272.993 183.766,256.231 			
				"/>
			<polygon fill-rule="evenodd" clip-rule="evenodd" fill="#0075C9" points="144.62,340.061 152.162,323.002 147.012,340.932 			"/>
			<polygon fill-rule="evenodd" clip-rule="evenodd" fill="#0075C9" points="178.574,253.798 171.029,270.857 176.186,252.942 			
				"/>
			<polygon fill-rule="evenodd" clip-rule="evenodd" fill="#0075C9" points="152.227,342.355 156.699,324.271 154.742,342.811 			
				"/>
			<polygon fill-rule="evenodd" clip-rule="evenodd" fill="#0075C9" points="170.799,251.419 166.312,269.516 168.28,250.976 			"/>
		</g>
	</g>
	<text transform="matrix(1 0 0 1 269.5107 337.2734)" fill="#DEA427" font-family="'SohoGothicStd'" font-size="23.0856">marketing services</text>
</g>
</svg>
